<mxfile host="app.diagrams.net" modified="2024-06-18T14:45:11.027Z" agent="Mozilla/5.0 (Windows NT 10.0; Win64; x64) AppleWebKit/537.36 (KHTML, like Gecko) Chrome/124.0.0.0 Safari/537.36" etag="vouWQR6iV9xW6xlXN4I6" version="24.5.5" type="github">
  <diagram name="Page-1" id="b5b7bab2-c9e2-2cf4-8b2a-24fd1a2a6d21">
    <mxGraphModel dx="2074" dy="1098" grid="1" gridSize="10" guides="1" tooltips="1" connect="1" arrows="1" fold="1" page="1" pageScale="1" pageWidth="827" pageHeight="1169" background="none" math="0" shadow="0">
      <root>
        <mxCell id="0" />
        <mxCell id="1" parent="0" />
        <mxCell id="LhfyZljwdzAr05syaVW1-14" value="" style="rounded=0;whiteSpace=wrap;html=1;" parent="1" vertex="1">
          <mxGeometry x="294" y="250" width="426" height="520" as="geometry" />
        </mxCell>
        <mxCell id="LhfyZljwdzAr05syaVW1-17" value="«Annotation»&lt;div&gt;视频&lt;br&gt;&lt;/div&gt;" style="html=1;dropTarget=0;whiteSpace=wrap;fillColor=#ffe6cc;strokeColor=#d79b00;" parent="1" vertex="1">
          <mxGeometry x="540" y="330" width="110" height="50" as="geometry" />
        </mxCell>
        <mxCell id="LhfyZljwdzAr05syaVW1-18" value="" style="shape=module;jettyWidth=8;jettyHeight=4;" parent="LhfyZljwdzAr05syaVW1-17" vertex="1">
          <mxGeometry x="1" width="20" height="20" relative="1" as="geometry">
            <mxPoint x="-27" y="7" as="offset" />
          </mxGeometry>
        </mxCell>
        <mxCell id="LhfyZljwdzAr05syaVW1-19" value="«Annotation»&lt;div&gt;文字图片&lt;/div&gt;" style="html=1;dropTarget=0;whiteSpace=wrap;fillColor=#fff2cc;strokeColor=#d6b656;" parent="1" vertex="1">
          <mxGeometry x="540" y="440" width="110" height="50" as="geometry" />
        </mxCell>
        <mxCell id="LhfyZljwdzAr05syaVW1-20" value="" style="shape=module;jettyWidth=8;jettyHeight=4;" parent="LhfyZljwdzAr05syaVW1-19" vertex="1">
          <mxGeometry x="1" width="20" height="20" relative="1" as="geometry">
            <mxPoint x="-27" y="7" as="offset" />
          </mxGeometry>
        </mxCell>
        <mxCell id="LhfyZljwdzAr05syaVW1-21" value="Webserver组件图" style="text;html=1;align=center;verticalAlign=middle;whiteSpace=wrap;rounded=0;" parent="1" vertex="1">
          <mxGeometry x="294" y="250" width="106" height="30" as="geometry" />
        </mxCell>
        <mxCell id="LhfyZljwdzAr05syaVW1-22" value="«Annotation»&lt;br&gt;&lt;div&gt;线程池&lt;/div&gt;" style="html=1;dropTarget=0;whiteSpace=wrap;" parent="1" vertex="1">
          <mxGeometry x="540" y="555" width="110" height="45" as="geometry" />
        </mxCell>
        <mxCell id="LhfyZljwdzAr05syaVW1-23" value="" style="shape=module;jettyWidth=8;jettyHeight=4;" parent="LhfyZljwdzAr05syaVW1-22" vertex="1">
          <mxGeometry x="1" width="20" height="20" relative="1" as="geometry">
            <mxPoint x="-27" y="7" as="offset" />
          </mxGeometry>
        </mxCell>
        <mxCell id="LhfyZljwdzAr05syaVW1-24" value="«Annotation»&lt;div&gt;定时器&lt;/div&gt;" style="html=1;dropTarget=0;whiteSpace=wrap;fillColor=#f8cecc;strokeColor=#b85450;" parent="1" vertex="1">
          <mxGeometry x="350" y="330" width="110" height="55" as="geometry" />
        </mxCell>
        <mxCell id="LhfyZljwdzAr05syaVW1-25" value="" style="shape=module;jettyWidth=8;jettyHeight=4;" parent="LhfyZljwdzAr05syaVW1-24" vertex="1">
          <mxGeometry x="1" width="20" height="20" relative="1" as="geometry">
            <mxPoint x="-27" y="7" as="offset" />
          </mxGeometry>
        </mxCell>
        <mxCell id="LhfyZljwdzAr05syaVW1-26" value="«Annotation»&lt;div&gt;服务器&lt;/div&gt;" style="html=1;dropTarget=0;whiteSpace=wrap;" parent="1" vertex="1">
          <mxGeometry x="359" y="440" width="110" height="50" as="geometry" />
        </mxCell>
        <mxCell id="LhfyZljwdzAr05syaVW1-27" value="" style="shape=module;jettyWidth=8;jettyHeight=4;" parent="LhfyZljwdzAr05syaVW1-26" vertex="1">
          <mxGeometry x="1" width="20" height="20" relative="1" as="geometry">
            <mxPoint x="-27" y="7" as="offset" />
          </mxGeometry>
        </mxCell>
        <mxCell id="LhfyZljwdzAr05syaVW1-28" value="«Annotation»&lt;div&gt;http网络协议&lt;/div&gt;" style="html=1;dropTarget=0;whiteSpace=wrap;" parent="1" vertex="1">
          <mxGeometry x="369" y="555" width="110" height="50" as="geometry" />
        </mxCell>
        <mxCell id="LhfyZljwdzAr05syaVW1-29" value="" style="shape=module;jettyWidth=8;jettyHeight=4;" parent="LhfyZljwdzAr05syaVW1-28" vertex="1">
          <mxGeometry x="1" width="20" height="20" relative="1" as="geometry">
            <mxPoint x="-27" y="7" as="offset" />
          </mxGeometry>
        </mxCell>
      </root>
    </mxGraphModel>
  </diagram>
</mxfile>
